<svg width="20" height="20" viewBox="0 0 20 20" fill="none" xmlns="http://www.w3.org/2000/svg">
<path d="M5.00402 7.76153L4.77162 7.98216L4.84896 8.29315C5.0002 8.90127 5.44383 10.4994 7.29532 12.3605C9.13639 14.2112 10.5903 14.6698 11.3693 14.8264L11.6591 14.8847L11.8676 14.6751L13.9273 12.6046L18.7834 14.2714V16.5109L17.0656 18.2376C16.3927 18.792 15.4629 19.047 14.1865 19.047C11.2338 19.047 7.44292 17.4842 4.82303 14.9868C2.99776 13.0832 1.62269 10.5485 0.969405 8.16802C0.308959 5.7614 0.428539 3.68731 1.32546 2.53509L3.03793 0.813672H5.40391L7.18055 5.69518L5.00402 7.76153Z" stroke="white" stroke-width="1.1"/>
</svg>
